EMG
version=1
nRows=31
nColumns=17
inDegrees=no
endheader
time	_right_gast_med	_right_glut_max	_left_gast_med	_left_glut_max	_right_glut_med	_right_bic_fem	_right_rect_fem	_right_vast_lat	_right_vast_med	_right_tens_fasc_lat	_left_glut_med	_left_bic_fem	_left_rect_fem	_left_vast_lat	_left_vast_med	_left_tens_fasc_lat
      1.70000000	      0.47791687	      0.00092615	      0.02773386	     -0.00655588	      0.02156043	      0.00535698	      0.01255647	     -0.00096427	      0.10581100	      0.00520258	      0.05915222	      0.02701169	      0.00529188	     -0.04493510	      0.03050338	      0.02069564
      1.71000000	     -0.87178987	      0.01014577	      0.03488321	     -0.00908851	      0.02332805	      0.00224543	      0.01312534	      0.00738758	      0.14002459	     -0.00324420	      0.06531313	      0.03252543	      0.02645619	     -0.03157826	     -0.01501756	     -0.00812241
      1.72000000	     -0.86689818	      0.01650306	      0.01499067	     -0.00621530	      0.02732824	     -0.00101000	      0.00990765	      0.02061448	      0.11031308	     -0.01043466	      0.04775204	      0.02285835	      0.03832709	     -0.04699833	     -0.07008268	      0.00204054
      1.73000000	      0.10223253	      0.02607423	      0.01287128	     -0.00694301	      0.02716154	     -0.00448040	      0.00733746	      0.02835817	      0.03427909	     -0.00607792	      0.03371792	     -0.00048724	      0.01930529	     -0.04709388	     -0.05830544	      0.02527087
      1.74000000	      0.51158035	      0.02998907	      0.03806211	     -0.00820270	      0.02024174	     -0.00843192	      0.00598534	      0.02349368	     -0.01610967	      0.00843646	      0.02434646	     -0.02414841	     -0.01057521	      0.00313381	     -0.01803857	      0.02834833
      1.75000000	      0.44170427	      0.01042245	      0.03817396	     -0.00210007	      0.00697332	     -0.00884701	      0.00237911	      0.01673441	     -0.01966944	      0.02203260	      0.01259848	     -0.02559807	     -0.02667524	      0.05126289	     -0.01168889	      0.01956096
      1.76000000	      0.34668237	     -0.02699299	     -0.00324937	      0.00345573	     -0.00854855	     -0.00412940	      0.00116185	      0.01570543	     -0.00993131	      0.02386305	     -0.00156247	      0.00596181	     -0.02307265	      0.05972771	     -0.05584006	      0.01011715
      1.77000000	      0.29395247	     -0.05973585	     -0.03227182	      0.00269870	     -0.02126245	      0.00251726	      0.00730546	      0.01160855	     -0.00453947	      0.01505689	     -0.01785081	      0.04510824	     -0.00380280	      0.04632482	     -0.08793038	     -0.00257726
      1.78000000	      0.20342638	     -0.07299229	     -0.01962321	      0.01615011	     -0.01822009	      0.00452387	      0.01774657	      0.00319053	     -0.00164297	      0.00192182	     -0.03182517	      0.04903398	      0.02955523	      0.03988823	     -0.04161666	     -0.01255543
      1.79000000	      0.04959629	     -0.06981310	      0.00287128	      0.04067108	      0.00699306	      0.00316060	      0.02539476	     -0.00325516	      0.00034981	     -0.00606264	     -0.02923464	      0.02272386	      0.06278361	      0.03459587	      0.04164914	      0.00445093
      1.80000000	      0.29806420	     -0.08848357	      0.01502257	      0.03913066	      0.03236389	      0.00794193	      0.02686387	     -0.00646961	      0.00113729	     -0.00402356	     -0.01567837	      0.00595538	      0.06518672	      0.01314619	      0.06799498	      0.04128077
      1.81000000	      1.39298558	     -0.11990692	      0.01585368	      0.01979387	      0.03153976	      0.02156619	      0.02617124	     -0.00150709	      0.00078726	     -0.00106232	     -0.01110483	      0.00454900	      0.04191038	     -0.00652932	      0.00952364	      0.05721791
      1.82000000	      1.75705886	     -0.03162875	      0.01356498	      0.01661948	      0.00262298	      0.03226195	      0.02682091	      0.01086615	      0.00148993	      0.00187579	     -0.01437532	     -0.00071726	      0.02109241	     -0.00859568	     -0.04269620	      0.04316422
      1.83000000	     -0.28301749	      0.18888417	      0.02294646	      0.01344218	     -0.02805381	      0.03129986	      0.02493175	      0.01983254	      0.00290079	      0.00838173	     -0.01363753	     -0.01006925	      0.00902664	     -0.00378362	     -0.01295127	      0.01797101
      1.84000000	     -2.40261745	      0.31636035	      0.02296474	     -0.01345370	     -0.03178189	      0.02429944	      0.01746877	      0.02419146	      0.00363243	      0.01383532	     -0.00715577	     -0.01147799	      0.00076177	     -0.00363373	      0.04436627	     -0.00153348
      1.85000000	     -2.03381085	      0.24995375	     -0.00494755	     -0.03987675	     -0.01278872	      0.01943340	      0.00717126	      0.02710141	      0.00609599	      0.01581362	     -0.00032467	     -0.00644658	     -0.00282102	     -0.00639198	      0.04555244	     -0.00386871
      1.86000000	     -0.47825745	      0.12657395	     -0.03465963	     -0.03978164	      0.00910926	      0.02152696	     -0.00269891	      0.02326453	      0.00901871	      0.01596666	      0.00262949	     -0.00208988	     -0.00100081	     -0.00800136	     -0.01124509	      0.00506761
      1.87000000	      0.40754953	      0.04402852	     -0.02894582	     -0.02079848	      0.02717436	      0.02688698	     -0.00746951	      0.01059119	     -0.00277516	      0.01561543	      0.00292667	      0.00567251	      0.00266675	     -0.00544800	     -0.05849564	      0.00657321
      1.88000000	      0.57564420	      0.00780455	      0.01911320	      0.00534119	      0.03472325	      0.02633457	     -0.00441537	     -0.00239929	     -0.03269017	      0.01523058	      0.00469799	      0.01875318	      0.00593957	      0.00240829	     -0.04521991	     -0.00865418
      1.89000000	      0.52221936	     -0.00504521	      0.06836465	      0.03133317	      0.02617996	      0.01716111	      0.00148742	     -0.00673991	     -0.04988957	      0.01400169	      0.00659744	      0.02617075	      0.00687952	      0.00950142	      0.00510863	     -0.03471539
      1.90000000	      0.43394679	     -0.05320800	      0.05230423	      0.04449882	      0.01138800	      0.00667745	      0.00533442	     -0.00439496	     -0.04074180	      0.00982210	      0.00523338	      0.01915024	      0.00596127	      0.00525494	      0.03792873	     -0.05406212
      1.91000000	      0.34068370	     -0.11774957	     -0.03416911	      0.03985222	     -0.00019130	      0.00001938	      0.00552291	     -0.00332354	     -0.02567188	      0.00286366	      0.00664256	      0.00657120	      0.00613984	     -0.01124308	      0.03931866	     -0.04718429
      1.92000000	      0.25708383	     -0.10942713	     -0.06816545	      0.03586295	     -0.00539502	     -0.00553383	      0.00328149	     -0.00774059	     -0.01983420	     -0.00324896	      0.01641601	      0.00002196	      0.00714650	     -0.02074972	      0.03022038	     -0.01327455
      1.93000000	      0.19185011	     -0.03423528	     -0.00376057	      0.04056985	     -0.00316126	     -0.00988635	      0.00258683	     -0.01257154	     -0.02131630	     -0.00391414	      0.02359952	      0.00064960	      0.00909057	     -0.01096709	      0.02523704	      0.02572601
      1.94000000	      0.14580379	      0.02197580	      0.04814056	     -0.00226907	      0.00193421	     -0.00669458	      0.00327406	     -0.00955823	     -0.01729765	      0.00311958	      0.01966616	      0.00601183	      0.01304171	      0.00813692	      0.02278094	      0.04445008
      1.95000000	      0.11110453	      0.02655599	      0.04809799	     -0.01980970	      0.00343801	     -0.00117154	      0.00305285	     -0.00166084	     -0.00680485	      0.01323642	      0.01195830	      0.01002616	      0.01517992	      0.02702815	      0.00727880	      0.03354556
      1.96000000	      0.08084127	      0.00823373	      0.03087960	      0.43301070	      0.00249937	     -0.00364997	      0.00179384	      0.00263614	     -0.00009595	      0.01771319	      0.00796457	      0.00956792	      0.01318582	      0.04038091	     -0.03790546	      0.00713157
      1.97000000	      0.05680063	     -0.00390714	      0.00999650	      1.03426182	      0.00319798	     -0.00155378	      0.00061666	      0.00119497	      0.00237964	      0.01302873	      0.00842517	      0.00944257	      0.01224723	      0.03676862	     -0.07827178	     -0.00873300
      1.98000000	      0.03783039	     -0.00526069	     -0.00543753	      0.03631981	      0.00508895	      0.01394132	      0.00156938	      0.00092715	      0.00444054	      0.00646753	      0.01114332	      0.01242067	      0.01206880	      0.01170380	     -0.04849508	      0.00124932
      1.99000000	      0.02143885	     -0.00365871	      0.00190813	     -2.05695224	      0.00607880	      0.02414855	      0.00689417	      0.01362728	      0.00349729	      0.00558656	      0.01274471	      0.01937426	      0.01045294	     -0.00913562	      0.03449842	      0.02440599
      2.00000000	      0.00973021	     -0.00488487	      0.02220922	     -2.40888381	      0.00670911	      0.02079628	      0.01401603	      0.03345811	     -0.00424643	      0.00851284	      0.00987651	      0.02941833	      0.01038504	     -0.00294568	      0.08734065	      0.03031139
